<svg id="visual" viewBox="0 0 900 600" width="900" height="600" xmlns="http://www.w3.org/2000/svg" xmlns:xlink="http://www.w3.org/1999/xlink" version="1.1"><path d="M0 578L11.5 574.3C23 570.7 46 563.3 69 561.5C92 559.7 115 563.3 138.2 566C161.3 568.7 184.7 570.3 207.8 568.7C231 567 254 562 277 563.8C300 565.7 323 574.3 346 575C369 575.7 392 568.3 415.2 563.7C438.3 559 461.7 557 484.8 557.8C508 558.7 531 562.3 554 566.7C577 571 600 576 623 574.3C646 572.7 669 564.3 692.2 560C715.3 555.7 738.7 555.3 761.8 557.3C785 559.3 808 563.7 831 567.2C854 570.7 877 573.3 888.5 574.7L900 576L900 601L888.5 601C877 601 854 601 831 601C808 601 785 601 761.8 601C738.7 601 715.3 601 692.2 601C669 601 646 601 623 601C600 601 577 601 554 601C531 601 508 601 484.8 601C461.7 601 438.3 601 415.2 601C392 601 369 601 346 601C323 601 300 601 277 601C254 601 231 601 207.8 601C184.7 601 161.3 601 138.2 601C115 601 92 601 69 601C46 601 23 601 11.5 601L0 601Z" fill="#89b3d5" stroke-linecap="round" stroke-linejoin="miter"></path></svg>