<svg id="visual" viewBox="0 0 900 600" width="900" height="600" xmlns="http://www.w3.org/2000/svg" xmlns:xlink="http://www.w3.org/1999/xlink" version="1.1"><rect x="0" y="0" width="900" height="600" fill="#fafaff"></rect><path d="M0 100L18.8 120.7C37.7 141.3 75.3 182.7 112.8 176.5C150.3 170.3 187.7 116.7 225.2 106.3C262.7 96 300.3 129 337.8 146.5C375.3 164 412.7 166 450.2 152.8C487.7 139.7 525.3 111.3 562.8 95.2C600.3 79 637.7 75 675.2 97.8C712.7 120.7 750.3 170.3 787.8 184.3C825.3 198.3 862.7 176.7 881.3 165.8L900 155L900 0L881.3 0C862.7 0 825.3 0 787.8 0C750.3 0 712.7 0 675.2 0C637.7 0 600.3 0 562.8 0C525.3 0 487.7 0 450.2 0C412.7 0 375.3 0 337.8 0C300.3 0 262.7 0 225.2 0C187.7 0 150.3 0 112.8 0C75.3 0 37.7 0 18.8 0L0 0Z" fill="#89b3d5" stroke-linecap="round" stroke-linejoin="miter"></path></svg>