<svg id="visual" viewBox="0 0 900 600" width="900" height="600" xmlns="http://www.w3.org/2000/svg" xmlns:xlink="http://www.w3.org/1999/xlink" version="1.1"><rect x="0" y="0" width="900" height="600" fill="#fafaff"></rect><g transform="translate(448.6391345332804 316.6702878831106)"><path d="M126.3 -196.8C171.5 -167.5 221.3 -145.6 248.2 -107.3C275.1 -69 279.1 -14.1 264.4 32.9C249.7 80 216.3 119.2 181.7 155.3C147.1 191.4 111.3 224.3 69.6 235.9C28 247.5 -19.5 238 -67.5 225.8C-115.5 213.6 -163.9 198.8 -202.1 167.8C-240.2 136.9 -268.1 89.7 -270 42C-271.9 -5.7 -247.8 -53.9 -224.6 -101.7C-201.4 -149.4 -179.1 -196.7 -141.8 -229.7C-104.5 -262.6 -52.3 -281.3 -5.9 -272.2C40.5 -263.1 81.1 -226.2 126.3 -196.8" fill="#89b3d5"></path></g></svg>