<svg id="visual" viewBox="0 0 900 300" width="900" height="300" xmlns="http://www.w3.org/2000/svg" xmlns:xlink="http://www.w3.org/1999/xlink" version="1.1"><rect x="0" y="0" width="900" height="300" fill="#fafaff"></rect><path d="M0 119L12.5 121.7C25 124.3 50 129.7 75 139.8C100 150 125 165 150 171.2C175 177.3 200 174.7 225 176C250 177.3 275 182.7 300 179.3C325 176 350 164 375 155C400 146 425 140 450 141.8C475 143.7 500 153.3 525 155.3C550 157.3 575 151.7 600 147.3C625 143 650 140 675 134C700 128 725 119 750 115.8C775 112.7 800 115.3 825 120.3C850 125.3 875 132.7 887.5 136.3L900 140L900 301L887.5 301C875 301 850 301 825 301C800 301 775 301 750 301C725 301 700 301 675 301C650 301 625 301 600 301C575 301 550 301 525 301C500 301 475 301 450 301C425 301 400 301 375 301C350 301 325 301 300 301C275 301 250 301 225 301C200 301 175 301 150 301C125 301 100 301 75 301C50 301 25 301 12.5 301L0 301Z" fill="#89b3d5" stroke-linecap="round" stroke-linejoin="miter"></path></svg>