<svg id="visual" viewBox="0 0 900 200" width="900" height="200" xmlns="http://www.w3.org/2000/svg" xmlns:xlink="http://www.w3.org/1999/xlink" version="1.1"><rect x="0" y="0" width="900" height="200" fill="#fafaff"></rect><path d="M0 143L11.5 141.5C23 140 46 137 69 131.3C92 125.7 115 117.3 138.2 114.7C161.3 112 184.7 115 207.8 117C231 119 254 120 277 125C300 130 323 139 346 143C369 147 392 146 415.2 144.8C438.3 143.7 461.7 142.3 484.8 140.5C508 138.7 531 136.3 554 135.7C577 135 600 136 623 133.2C646 130.3 669 123.7 692.2 124.7C715.3 125.7 738.7 134.3 761.8 137.3C785 140.3 808 137.7 831 138.2C854 138.7 877 142.3 888.5 144.2L900 146L900 201L888.5 201C877 201 854 201 831 201C808 201 785 201 761.8 201C738.7 201 715.3 201 692.2 201C669 201 646 201 623 201C600 201 577 201 554 201C531 201 508 201 484.8 201C461.7 201 438.3 201 415.2 201C392 201 369 201 346 201C323 201 300 201 277 201C254 201 231 201 207.8 201C184.7 201 161.3 201 138.2 201C115 201 92 201 69 201C46 201 23 201 11.5 201L0 201Z" fill="#89b3d5" stroke-linecap="round" stroke-linejoin="miter"></path></svg>