<svg id="visual" viewBox="0 0 900 600" width="900" height="600" xmlns="http://www.w3.org/2000/svg" xmlns:xlink="http://www.w3.org/1999/xlink" version="1.1"><rect x="0" y="0" width="900" height="600" fill="#000000"></rect><defs><linearGradient id="grad1_0" x1="33.3%" y1="100%" x2="100%" y2="0%"><stop offset="20%" stop-color="#000000" stop-opacity="1"></stop><stop offset="80%" stop-color="#000000" stop-opacity="1"></stop></linearGradient></defs><defs><linearGradient id="grad2_0" x1="0%" y1="100%" x2="66.7%" y2="0%"><stop offset="20%" stop-color="#000000" stop-opacity="1"></stop><stop offset="80%" stop-color="#000000" stop-opacity="1"></stop></linearGradient></defs><g transform="translate(900, 600)"><path d="M-270.4 0C-256.2 -30.1 -241.9 -60.1 -231.9 -96.1C-221.9 -132 -216.1 -173.8 -191.2 -191.2C-166.3 -208.6 -122.3 -201.5 -87.3 -210.6C-52.2 -219.8 -26.1 -245.1 0 -270.4L0 0Z" fill="#cbe3f7"></path></g><g transform="translate(0, 0)"><path d="M270.4 0C257.8 34.2 245.1 68.4 226.4 93.8C207.6 119.1 182.8 135.6 163.3 163.3C143.9 191.1 129.8 230.1 103.5 249.8C77.2 269.6 38.6 270 0 270.4L0 0Z" fill="#cbe3f7"></path></g></svg>